<?xml version="1.0" encoding="UTF-8"?>
<svg id="Layer_2" data-name="Layer 2" xmlns="http://www.w3.org/2000/svg" viewBox="0 0 468.23 476.28">
  <defs>
    <style>
      .cls-1 {
        fill: #243746;
        stroke-width: 0px;
      }
    </style>
  </defs>
  <g id="FMU_Logo_Blue" data-name="FMU Logo Blue">
    <g>
      <path class="cls-1" d="m182.54.99c-2.29-2.11-6.01-.63-6.22,2.49l-4.54,67.86c-.14,2.04-1.89,3.58-3.93,3.46l-79.32-4.73c-3.52-.21-5.32,4.14-2.69,6.48l141.58,126.13c2.39,2.13,6.18.44,6.19-2.76l.45-149.9c0-1.04.29-2.85-.48-3.56L182.54.99Z"/>
      <path class="cls-1" d="m150.21,57.78c8.22-4.17,11.5-14.22,7.33-22.44s-14.22-11.5-22.44-7.33-11.5,14.22-7.33,22.44c4.17,8.22,14.22,11.5,22.44,7.33Z"/>
      <path class="cls-1" d="m200.42,219.42l-129.59-75.34c-.9-.52-2.32-1.68-3.32-1.36L2.61,164.19c-2.98.93-3.55,4.89-.96,6.63l56.5,37.86c1.7,1.14,2.16,3.43,1.03,5.13l-43.75,66.33c-1.94,2.94.92,6.68,4.27,5.57l180.03-59.55c3.04-1.01,3.47-5.13.7-6.74Z"/>
      <path class="cls-1" d="m36.83,220.22c.5-9.21-6.56-17.07-15.77-17.57-9.21-.5-17.07,6.56-17.57,15.77-.5,9.21,6.56,17.07,15.77,17.57s17.07-6.56,17.57-15.77Z"/>
      <path class="cls-1" d="m200.92,258.04l-130.04,74.56c-.9.52-2.61,1.17-2.84,2.19l-13.86,66.94c-.68,3.04,2.46,5.52,5.26,4.14l61.04-30c1.83-.9,4.05-.15,4.96,1.67l35.57,71.06c1.58,3.15,6.24,2.54,6.96-.91l38.45-185.68c.65-3.14-2.71-5.57-5.49-3.98Z"/>
      <path class="cls-1" d="m119.48,398.04c-7.73-5.03-18.07-2.85-23.1,4.87-5.03,7.72-2.85,18.07,4.87,23.1s18.07,2.85,23.1-4.87,2.85-18.07-4.87-23.1Z"/>
      <path class="cls-1" d="m240.81,273.61c-2.39-2.13-6.18-.44-6.19,2.76l-.45,149.9c0,1.04-.29,2.85.48,3.56l51.04,45.48c2.29,2.11,6.01.63,6.22-2.49l4.54-67.86c.14-2.04,1.89-3.58,3.93-3.46l79.32,4.73c3.52.21,5.32-4.14,2.69-6.48l-141.58-126.13Z"/>
      <circle class="cls-1" cx="325.58" cy="431.2" r="16.69" transform="translate(-213.96 460.12) rotate(-56.01)"/>
      <path class="cls-1" d="m466.58,306.01l-56.5-37.86c-1.7-1.14-2.16-3.43-1.03-5.13l43.75-66.33c1.94-2.94-.92-6.68-4.27-5.57l-180.03,59.55c-3.04,1.01-3.47,5.13-.7,6.74l129.59,75.34c.9.52,2.32,1.68,3.32,1.36l64.91-21.47c2.98-.93,3.55-4.89.96-6.63Z"/>
      <path class="cls-1" d="m431.39,258.11c-.5,9.21,6.56,17.07,15.77,17.57,9.21.5,17.07-6.56,17.57-15.77.5-9.21-6.56-17.07-15.77-17.57-9.21-.5-17.07,6.56-17.57,15.77Z"/>
      <path class="cls-1" d="m267.3,218.82l130.04-74.56c.9-.52,2.61-1.17,2.84-2.19l13.86-66.94c.68-3.04-2.46-5.52-5.26-4.14l-61.04,30c-1.83.9-4.05.15-4.96-1.67l-35.57-71.06c-1.58-3.15-6.24-2.54-6.96.91l-38.45,185.68c-.65,3.14,2.71,5.57,5.49,3.98Z"/>
      <path class="cls-1" d="m349.5,75.43c7.72,5.03,18.07,2.85,23.1-4.87,5.03-7.72,2.85-18.07-4.87-23.1s-18.07-2.85-23.1,4.87c-5.03,7.72-2.85,18.07,4.87,23.1Z"/>
    </g>
  </g>
</svg>