<?xml version="1.0" encoding="UTF-8"?>
<svg id="Layer_2" data-name="Layer 2" xmlns="http://www.w3.org/2000/svg" viewBox="0 0 1478.85 476.28">
  <defs>
    <style>
      .cls-1 {
        fill: #243746;
        stroke-width: 0px;
      }
    </style>
  </defs>
  <g id="FMU_Logo_Blue" data-name="FMU Logo Blue">
    <g>
      <path class="cls-1" d="m773.06,82.24h-187.96c-2.65,0-4.72.74-6.19,2.21-1.48,1.48-2.21,3.39-2.21,5.75v293.66c0,2.36.73,4.28,2.21,5.75,1.47,1.48,3.54,2.21,6.19,2.21h40.69c5.31,0,7.96-2.65,7.96-7.96v-108.8h104.37c2.65,0,4.71-.73,6.19-2.21,1.47-1.47,2.21-3.39,2.21-5.75v-36.27c0-2.36-.74-4.27-2.21-5.75-1.48-1.47-3.54-2.21-6.19-2.21h-104.37v-88.45h139.31c2.65,0,4.71-.73,6.19-2.21,1.47-1.47,2.21-3.39,2.21-5.75v-36.27c0-2.36-.74-4.27-2.21-5.75-1.48-1.47-3.54-2.21-6.19-2.21Z"/>
      <path class="cls-1" d="m1155.56,82.24h-37.15c-4.42,0-7.67,2.07-9.73,6.19l-96.86,182.66-96.86-182.66c-2.07-4.13-5.31-6.19-9.73-6.19h-37.15c-2.65,0-4.72.74-6.19,2.21-1.48,1.48-2.21,3.39-2.21,5.75v293.66c0,2.36.73,4.28,2.21,5.75,1.47,1.48,3.54,2.21,6.19,2.21h39.36c2.65,0,4.71-.73,6.19-2.21,1.47-1.47,2.21-3.39,2.21-5.75v-179.12l73.42,137.1c1.77,4.13,4.86,6.19,9.29,6.19h26.1c4.42,0,7.66-2.06,9.73-6.19l73.42-135.78v177.79c0,2.36.73,4.28,2.21,5.75,1.47,1.48,3.54,2.21,6.19,2.21h39.36c5.31,0,7.96-2.65,7.96-7.96V90.2c0-5.31-2.65-7.96-7.96-7.96Z"/>
      <path class="cls-1" d="m1473.1,79.59l-3.54.88-41.13,15.04c-4.13,1.18-6.19,4.28-6.19,9.29v175.14c0,20.64-5.6,36.49-16.81,47.54-11.21,11.06-26.09,16.59-44.67,16.59s-33.47-5.53-44.67-16.59c-11.21-11.06-16.81-26.9-16.81-47.54V86.67c0-4.71-1.92-7.08-5.75-7.08l-3.54.88-41.13,15.04c-4.42,1.18-6.63,4.28-6.63,9.29v176.91c0,26.83,5.53,48.8,16.59,65.9,11.06,17.1,25.5,29.56,43.34,37.37,17.83,7.81,37.37,11.72,58.6,11.72s40.76-3.91,58.6-11.72c17.83-7.81,32.21-20.27,43.12-37.37,10.9-17.1,16.36-39.06,16.36-65.9V86.67c0-4.71-1.92-7.08-5.75-7.08Z"/>
      <path class="cls-1" d="m182.54.99c-2.3-2.11-6.01-.63-6.22,2.49l-4.54,67.86c-.14,2.04-1.89,3.58-3.93,3.46l-79.32-4.73c-3.52-.21-5.32,4.14-2.69,6.48l141.58,126.13c2.39,2.13,6.18.44,6.19-2.76l.45-149.9c0-1.04.29-2.85-.48-3.56L182.54.99Z"/>
      <circle class="cls-1" cx="142.65" cy="42.9" r="16.69" transform="translate(57.59 165.19) rotate(-71.91)"/>
      <path class="cls-1" d="m200.42,219.42l-129.59-75.34c-.9-.52-2.32-1.68-3.32-1.36L2.61,164.19c-2.98.93-3.55,4.89-.96,6.63l56.5,37.86c1.7,1.14,2.16,3.43,1.03,5.13l-43.75,66.33c-1.94,2.94.92,6.68,4.27,5.57l180.03-59.55c3.04-1.01,3.47-5.13.7-6.74Z"/>
      <circle class="cls-1" cx="20.16" cy="219.32" r="16.69" transform="translate(-200.08 220.09) rotate(-84.95)"/>
      <path class="cls-1" d="m200.92,258.04l-130.04,74.56c-.9.52-2.61,1.17-2.84,2.19l-13.86,66.94c-.68,3.04,2.46,5.52,5.26,4.14l61.04-30c1.83-.9,4.05-.15,4.96,1.67l35.57,71.06c1.58,3.15,6.24,2.54,6.96-.91l38.45-185.68c.65-3.14-2.71-5.57-5.49-3.98Z"/>
      <circle class="cls-1" cx="110.36" cy="412.02" r="16.69" transform="translate(-82.68 31.66) rotate(-11.91)"/>
      <path class="cls-1" d="m240.81,273.61c-2.39-2.13-6.18-.44-6.19,2.76l-.45,149.9c0,1.04-.29,2.85.48,3.56l51.04,45.48c2.3,2.11,6.01.63,6.22-2.49l4.54-67.86c.14-2.04,1.89-3.58,3.93-3.46l79.32,4.73c3.52.21,5.32-4.14,2.69-6.48l-141.58-126.13Z"/>
      <circle class="cls-1" cx="325.58" cy="431.2" r="16.69" transform="translate(-185.39 606.83) rotate(-71.91)"/>
      <path class="cls-1" d="m466.58,306.01l-56.5-37.86c-1.7-1.14-2.16-3.43-1.03-5.13l43.75-66.33c1.94-2.94-.92-6.68-4.27-5.57l-180.03,59.55c-3.04,1.01-3.47,5.13-.7,6.74l129.59,75.34c.9.52,2.32,1.68,3.32,1.36l64.91-21.47c2.98-.93,3.55-4.89.96-6.63Z"/>
      <path class="cls-1" d="m431.39,258.11c-.5,9.21,6.56,17.07,15.77,17.57,9.21.5,17.07-6.56,17.57-15.77.5-9.21-6.56-17.07-15.77-17.57-9.21-.5-17.07,6.56-17.57,15.77Z"/>
      <path class="cls-1" d="m267.3,218.82l130.04-74.56c.9-.52,2.61-1.17,2.84-2.19l13.86-66.94c.68-3.04-2.46-5.52-5.26-4.14l-61.04,30c-1.83.9-4.05.15-4.96-1.67l-35.57-71.06c-1.58-3.15-6.24-2.54-6.96.91l-38.45,185.68c-.65,3.14,2.71,5.57,5.49,3.98Z"/>
      <circle class="cls-1" cx="358.61" cy="61.44" r="16.69" transform="translate(33.43 224.64) rotate(-36.37)"/>
    </g>
  </g>
</svg>